# Blender v2.81 (sub 16) OBJ File: 'ograja.blend'
# www.blender.org
o Cube
v -1.264264 -0.289519 1.264264
v -1.264264 1.264264 1.264264
v -1.264264 -0.289519 0.648481
v -1.264264 1.264264 0.648481
v 4.591124 -0.289519 1.264264
v 4.591124 1.264264 1.264264
v 4.591124 -0.289519 0.648481
v 4.591124 1.264264 0.648481
v 1.938207 0.425425 0.648481
v 1.938207 0.425425 1.264264
v 3.719457 1.264264 0.648481
v 3.719457 1.264264 1.264264
v 3.719457 0.425425 0.648481
v 3.719457 0.425425 1.264264
v 1.938206 1.264264 0.648481
v 1.938206 1.264264 1.264264
v -0.437475 0.381461 0.648481
v -0.437475 0.381461 1.264264
v 1.343776 1.264264 1.264264
v 1.343776 1.264264 0.648481
v 1.343776 0.381461 0.648481
v 1.343776 0.381461 1.264264
v -0.437475 1.264264 0.648481
v -0.437475 1.264264 1.264264
v 4.591124 1.264264 1.264264
v 4.591124 1.264264 1.264264
v 4.591124 1.264264 0.648481
v 4.591124 1.264264 0.648481
v 3.719457 1.264264 1.264264
v 3.719457 1.264264 1.264264
v -1.264264 -0.289519 1.264264
v -1.264264 -0.289519 1.264264
v -1.264264 1.264264 1.264264
v -1.264264 1.264264 1.264264
v 4.591124 -0.289519 0.648481
v 4.591124 -0.289519 0.648481
v -1.264264 -0.289519 0.648481
v -1.264264 -0.289519 0.648481
v -1.264264 1.264264 0.648481
v -1.264264 1.264264 0.648481
v 4.591124 -0.289519 1.264264
v 4.591124 -0.289519 1.264264
v -0.437475 1.264264 0.648481
v -0.437475 1.264264 0.648481
v 3.719457 0.425425 0.648481
v 3.719457 0.425425 0.648481
v 1.938207 0.425425 0.648481
v 1.938207 0.425425 0.648481
v 3.719457 0.425425 1.264264
v 3.719457 0.425425 1.264264
v 1.938207 0.425425 1.264264
v 1.938207 0.425425 1.264264
v 3.719457 1.264264 0.648481
v 3.719457 1.264264 0.648481
v 1.938206 1.264264 1.264264
v 1.938206 1.264264 1.264264
v 1.938206 1.264264 0.648481
v 1.938206 1.264264 0.648481
v 1.343776 1.264264 1.264264
v 1.343776 1.264264 1.264264
v 1.343776 0.381461 0.648481
v 1.343776 0.381461 0.648481
v -0.437475 0.381461 0.648481
v -0.437475 0.381461 0.648481
v 1.343776 0.381461 1.264264
v 1.343776 0.381461 1.264264
v -0.437475 0.381461 1.264264
v -0.437475 0.381461 1.264264
v 1.343776 1.264264 0.648481
v 1.343776 1.264264 0.648481
v -0.437475 1.264264 1.264264
v -0.437475 1.264264 1.264264
vt 0.666771 0.985437
vt 0.666771 0.014563
vt 0.559451 0.014563
vt 0.274859 0.985437
vt 0.157919 0.446999
vt 0.150257 0.545560
vt 0.780531 0.269224
vt 0.780531 0.526854
vt 0.887851 0.526854
vt 0.780531 0.683654
vt 0.780531 0.828184
vt 0.887851 0.828184
vt 0.780531 0.003864
vt 0.780531 0.261495
vt 0.887851 0.261495
vt 0.282983 0.985437
vt 0.407585 0.545560
vt 0.399923 0.446999
vt 0.777311 0.761268
vt 0.669991 0.761268
vt 0.669991 0.900355
vt 0.780475 0.831884
vt 0.780475 0.933986
vt 0.884073 0.933986
vt 0.998390 0.002086
vt 0.891070 0.002086
vt 0.891070 0.141173
vt 0.777311 0.004430
vt 0.669991 0.004430
vt 0.669991 0.299777
vt 0.777311 0.610610
vt 0.669991 0.610610
vt 0.669991 0.756986
vt 0.780531 0.679291
vt 0.887850 0.679291
vt 0.887850 0.532914
vt 0.891070 0.282404
vt 0.998390 0.282404
vt 0.998390 0.145316
vt 0.777311 0.308637
vt 0.669991 0.308637
vt 0.669991 0.603984
vt 0.559451 0.985437
vt 0.004062 0.151652
vt 0.157919 0.151652
vt 0.004062 0.014563
vt 0.274859 0.014563
vt 0.150257 0.840907
vt 0.004062 0.985437
vt 0.004062 0.840907
vt 0.004062 0.545560
vt 0.004062 0.446999
vt 0.887850 0.269224
vt 0.887850 0.683654
vt 0.887850 0.003864
vt 0.553779 0.840907
vt 0.407585 0.840907
vt 0.553779 0.985437
vt 0.282983 0.014563
vt 0.399922 0.151652
vt 0.553779 0.014563
vt 0.553779 0.151652
vt 0.553779 0.446999
vt 0.553779 0.545560
vt 0.777311 0.900355
vt 0.884073 0.831884
vt 0.998390 0.141173
vt 0.777311 0.299777
vt 0.777311 0.756986
vt 0.780531 0.532914
vt 0.891070 0.145316
vt 0.777311 0.603984
vn 0.0000 -1.0000 0.0000
vn -0.0000 0.0000 -1.0000
vn 1.0000 0.0000 0.0000
vn 0.0000 1.0000 0.0000
vn -1.0000 0.0000 0.0000
vn 0.0000 0.0000 1.0000
s off
f 42/1/1 32/2/1 38/3/1
f 35/4/2 61/5/2 47/6/2
f 7/7/3 27/8/3 25/9/3
f 29/10/4 26/11/4 8/12/4
f 31/13/5 33/14/5 40/15/5
f 5/16/6 51/17/6 65/18/6
f 52/19/3 48/20/3 58/21/3
f 16/22/4 15/23/4 69/24/4
f 46/25/5 50/26/5 12/27/5
f 9/28/4 10/29/4 14/30/4
f 68/31/3 64/32/3 44/33/3
f 62/34/5 66/35/5 19/36/5
f 24/37/4 23/38/4 4/39/4
f 17/40/4 18/41/4 22/42/4
f 42/1/1 38/3/1 36/43/1
f 43/44/2 63/45/2 39/46/2
f 39/46/2 63/45/2 37/47/2
f 35/4/2 45/48/2 28/49/2
f 28/49/2 45/48/2 54/50/2
f 57/51/2 47/6/2 70/52/2
f 70/52/2 47/6/2 61/5/2
f 61/5/2 37/47/2 63/45/2
f 37/47/2 61/5/2 35/4/2
f 35/4/2 47/6/2 45/48/2
f 7/7/3 25/9/3 41/53/3
f 29/10/4 8/12/4 53/54/4
f 31/13/5 40/15/5 3/55/5
f 30/56/6 49/57/6 6/58/6
f 6/58/6 49/57/6 5/16/6
f 1/59/6 67/60/6 34/61/6
f 34/61/6 67/60/6 72/62/6
f 59/63/6 51/17/6 55/64/6
f 51/17/6 5/16/6 49/57/6
f 5/16/6 65/18/6 1/59/6
f 1/59/6 65/18/6 67/60/6
f 65/18/6 51/17/6 59/63/6
f 52/19/3 58/21/3 56/65/3
f 16/22/4 69/24/4 60/66/4
f 46/25/5 12/27/5 11/67/5
f 9/28/4 14/30/4 13/68/4
f 68/31/3 44/33/3 71/69/3
f 62/34/5 19/36/5 20/70/5
f 24/37/4 4/39/4 2/71/4
f 17/40/4 22/42/4 21/72/4
