# Blender v2.81 (sub 16) OBJ File: 'valj.blend'
# www.blender.org
o Cylinder
v 0.000000 -1.000000 -1.000000
v 0.000000 1.000000 -1.000000
v 0.195090 -1.000000 -0.980785
v 0.195090 1.000000 -0.980785
v 0.382683 -1.000000 -0.923880
v 0.382683 1.000000 -0.923880
v 0.555570 -1.000000 -0.831470
v 0.555570 1.000000 -0.831470
v 0.707107 -1.000000 -0.707107
v 0.707107 1.000000 -0.707107
v 0.831470 -1.000000 -0.555570
v 0.831470 1.000000 -0.555570
v 0.923880 -1.000000 -0.382683
v 0.923880 1.000000 -0.382683
v 0.980785 -1.000000 -0.195090
v 0.980785 1.000000 -0.195090
v 1.000000 -1.000000 -0.000000
v 1.000000 1.000000 -0.000000
v 0.980785 -1.000000 0.195090
v 0.980785 1.000000 0.195090
v 0.923880 -1.000000 0.382683
v 0.923880 1.000000 0.382683
v 0.831470 -1.000000 0.555570
v 0.831470 1.000000 0.555570
v 0.707107 -1.000000 0.707107
v 0.707107 1.000000 0.707107
v 0.555570 -1.000000 0.831470
v 0.555570 1.000000 0.831470
v 0.382683 -1.000000 0.923880
v 0.382683 1.000000 0.923880
v 0.195090 -1.000000 0.980785
v 0.195090 1.000000 0.980785
v -0.000000 -1.000000 1.000000
v -0.000000 1.000000 1.000000
v -0.195091 -1.000000 0.980785
v -0.195091 1.000000 0.980785
v -0.382684 -1.000000 0.923879
v -0.382684 1.000000 0.923879
v -0.555571 -1.000000 0.831469
v -0.555571 1.000000 0.831469
v -0.707107 -1.000000 0.707106
v -0.707107 1.000000 0.707106
v -0.831470 -1.000000 0.555570
v -0.831470 1.000000 0.555570
v -0.923880 -1.000000 0.382683
v -0.923880 1.000000 0.382683
v -0.980785 -1.000000 0.195089
v -0.980785 1.000000 0.195089
v -1.000000 -1.000000 -0.000001
v -1.000000 1.000000 -0.000001
v -0.980785 -1.000000 -0.195091
v -0.980785 1.000000 -0.195091
v -0.923879 -1.000000 -0.382684
v -0.923879 1.000000 -0.382684
v -0.831469 -1.000000 -0.555571
v -0.831469 1.000000 -0.555571
v -0.707106 -1.000000 -0.707108
v -0.707106 1.000000 -0.707108
v -0.555569 -1.000000 -0.831470
v -0.555569 1.000000 -0.831470
v -0.382682 -1.000000 -0.923880
v -0.382682 1.000000 -0.923880
v -0.195089 -1.000000 -0.980786
v -0.195089 1.000000 -0.980786
v 0.000000 -1.000000 -1.000000
v 0.000000 -1.000000 -1.000000
v 0.195090 -1.000000 -0.980785
v 0.195090 -1.000000 -0.980785
v 0.195090 1.000000 -0.980785
v 0.195090 1.000000 -0.980785
v 0.000000 1.000000 -1.000000
v 0.000000 1.000000 -1.000000
v 0.382683 -1.000000 -0.923880
v 0.382683 -1.000000 -0.923880
v 0.382683 1.000000 -0.923880
v 0.382683 1.000000 -0.923880
v 0.555570 -1.000000 -0.831470
v 0.555570 -1.000000 -0.831470
v 0.555570 1.000000 -0.831470
v 0.555570 1.000000 -0.831470
v 0.707107 -1.000000 -0.707107
v 0.707107 -1.000000 -0.707107
v 0.707107 1.000000 -0.707107
v 0.707107 1.000000 -0.707107
v 0.831470 -1.000000 -0.555570
v 0.831470 -1.000000 -0.555570
v 0.831470 1.000000 -0.555570
v 0.831470 1.000000 -0.555570
v 0.923880 -1.000000 -0.382683
v 0.923880 -1.000000 -0.382683
v 0.923880 1.000000 -0.382683
v 0.923880 1.000000 -0.382683
v 0.980785 -1.000000 -0.195090
v 0.980785 -1.000000 -0.195090
v 0.980785 1.000000 -0.195090
v 0.980785 1.000000 -0.195090
v 1.000000 -1.000000 -0.000000
v 1.000000 -1.000000 -0.000000
v 1.000000 1.000000 -0.000000
v 1.000000 1.000000 -0.000000
v 0.980785 -1.000000 0.195090
v 0.980785 -1.000000 0.195090
v 0.980785 1.000000 0.195090
v 0.980785 1.000000 0.195090
v 0.923880 -1.000000 0.382683
v 0.923880 -1.000000 0.382683
v 0.923880 1.000000 0.382683
v 0.923880 1.000000 0.382683
v 0.831470 -1.000000 0.555570
v 0.831470 -1.000000 0.555570
v 0.831470 1.000000 0.555570
v 0.831470 1.000000 0.555570
v 0.707107 -1.000000 0.707107
v 0.707107 -1.000000 0.707107
v 0.707107 1.000000 0.707107
v 0.707107 1.000000 0.707107
v 0.555570 -1.000000 0.831470
v 0.555570 -1.000000 0.831470
v 0.555570 1.000000 0.831470
v 0.555570 1.000000 0.831470
v 0.382683 -1.000000 0.923880
v 0.382683 -1.000000 0.923880
v 0.382683 1.000000 0.923880
v 0.382683 1.000000 0.923880
v 0.195090 -1.000000 0.980785
v 0.195090 -1.000000 0.980785
v 0.195090 1.000000 0.980785
v 0.195090 1.000000 0.980785
v -0.000000 -1.000000 1.000000
v -0.000000 -1.000000 1.000000
v -0.000000 1.000000 1.000000
v -0.000000 1.000000 1.000000
v -0.195091 -1.000000 0.980785
v -0.195091 -1.000000 0.980785
v -0.195091 1.000000 0.980785
v -0.195091 1.000000 0.980785
v -0.382684 -1.000000 0.923879
v -0.382684 -1.000000 0.923879
v -0.382684 1.000000 0.923879
v -0.382684 1.000000 0.923879
v -0.555571 -1.000000 0.831469
v -0.555571 -1.000000 0.831469
v -0.555571 1.000000 0.831469
v -0.555571 1.000000 0.831469
v -0.707107 -1.000000 0.707106
v -0.707107 -1.000000 0.707106
v -0.707107 1.000000 0.707106
v -0.707107 1.000000 0.707106
v -0.831470 -1.000000 0.555570
v -0.831470 -1.000000 0.555570
v -0.831470 1.000000 0.555570
v -0.831470 1.000000 0.555570
v -0.923880 -1.000000 0.382683
v -0.923880 -1.000000 0.382683
v -0.923880 1.000000 0.382683
v -0.923880 1.000000 0.382683
v -0.980785 -1.000000 0.195089
v -0.980785 -1.000000 0.195089
v -0.980785 1.000000 0.195089
v -0.980785 1.000000 0.195089
v -1.000000 -1.000000 -0.000001
v -1.000000 -1.000000 -0.000001
v -1.000000 1.000000 -0.000001
v -1.000000 1.000000 -0.000001
v -0.980785 -1.000000 -0.195091
v -0.980785 -1.000000 -0.195091
v -0.980785 1.000000 -0.195091
v -0.980785 1.000000 -0.195091
v -0.923879 -1.000000 -0.382684
v -0.923879 -1.000000 -0.382684
v -0.923879 1.000000 -0.382684
v -0.923879 1.000000 -0.382684
v -0.831469 -1.000000 -0.555571
v -0.831469 -1.000000 -0.555571
v -0.831469 1.000000 -0.555571
v -0.831469 1.000000 -0.555571
v -0.707106 -1.000000 -0.707108
v -0.707106 -1.000000 -0.707108
v -0.707106 1.000000 -0.707108
v -0.707106 1.000000 -0.707108
v -0.555569 -1.000000 -0.831470
v -0.555569 -1.000000 -0.831470
v -0.555569 1.000000 -0.831470
v -0.555569 1.000000 -0.831470
v -0.382682 -1.000000 -0.923880
v -0.382682 -1.000000 -0.923880
v -0.382682 1.000000 -0.923880
v -0.382682 1.000000 -0.923880
v -0.195089 -1.000000 -0.980786
v -0.195089 -1.000000 -0.980786
v -0.195089 1.000000 -0.980786
v -0.195089 1.000000 -0.980786
vt 0.489246 0.007282
vt 0.528283 0.492718
vt 0.489246 0.492718
vt 0.765682 0.492718
vt 0.727395 0.007282
vt 0.765682 0.007282
vt 0.687926 0.507281
vt 0.723992 0.992718
vt 0.687926 0.992718
vt 0.843327 0.007282
vt 0.875785 0.492718
vt 0.843327 0.492718
vt 0.943551 0.007282
vt 0.971154 0.492718
vt 0.943551 0.492718
vt 0.906476 0.507282
vt 0.938934 0.992718
vt 0.906476 0.992718
vt 0.842299 0.492718
vt 0.806233 0.007282
vt 0.842299 0.007282
vt 0.447105 0.992718
vt 0.408818 0.507282
vt 0.447105 0.507282
vt 0.568492 0.492718
vt 0.529454 0.007282
vt 0.568492 0.007282
vt 0.805118 0.492718
vt 0.766831 0.007282
vt 0.805118 0.007282
vt 0.761139 0.992718
vt 0.725074 0.507281
vt 0.761139 0.507282
vt 0.909218 0.492718
vt 0.876759 0.007282
vt 0.909218 0.007282
vt 0.873044 0.507282
vt 0.905502 0.992718
vt 0.873044 0.992718
vt 0.532470 0.507282
vt 0.568536 0.992718
vt 0.532470 0.992718
vt 0.686810 0.492718
vt 0.648523 0.007282
vt 0.686810 0.007282
vt 0.449037 0.007282
vt 0.488075 0.492718
vt 0.449037 0.492718
vt 0.726246 0.492718
vt 0.687959 0.007282
vt 0.726246 0.007282
vt 0.643914 0.507282
vt 0.679980 0.992718
vt 0.643914 0.992718
vt 0.942650 0.492718
vt 0.910191 0.007282
vt 0.942650 0.007282
vt 0.968267 0.507282
vt 0.995870 0.992718
vt 0.968267 0.992718
vt 0.872070 0.992718
vt 0.839611 0.507282
vt 0.872070 0.507282
vt 0.448220 0.507282
vt 0.484286 0.992718
vt 0.448220 0.992718
vt 0.647375 0.492718
vt 0.609087 0.007282
vt 0.647375 0.007282
vt 0.447866 0.492718
vt 0.408829 0.007282
vt 0.447866 0.007282
vt 0.607939 0.492718
vt 0.569651 0.007282
vt 0.607939 0.007282
vt 0.569618 0.507282
vt 0.605684 0.992718
vt 0.569618 0.992718
vt 0.772747 0.507282
vt 0.805206 0.992718
vt 0.772747 0.992718
vt 0.971982 0.007282
vt 0.999586 0.492718
vt 0.971982 0.492718
vt 0.939835 0.507282
vt 0.967439 0.992718
vt 0.939835 0.992718
vt 0.806179 0.507282
vt 0.838638 0.992718
vt 0.806179 0.992718
vt 0.005945 0.272587
vt 0.184603 0.007247
vt 0.402298 0.225006
vt 0.606766 0.507282
vt 0.642832 0.992718
vt 0.606766 0.992718
vt 0.490007 0.507281
vt 0.528294 0.992718
vt 0.490007 0.992718
vt 0.146316 0.514121
vt 0.394682 0.675931
vt 0.261927 0.978656
vt 0.528283 0.007282
vt 0.727395 0.492718
vt 0.723992 0.507282
vt 0.875785 0.007282
vt 0.971154 0.007282
vt 0.938934 0.507282
vt 0.806233 0.492718
vt 0.408818 0.992718
vt 0.529454 0.492718
vt 0.766831 0.492718
vt 0.725074 0.992718
vt 0.876759 0.492718
vt 0.905502 0.507282
vt 0.568536 0.507282
vt 0.648523 0.492718
vt 0.488075 0.007282
vt 0.687959 0.492718
vt 0.679980 0.507282
vt 0.910191 0.492718
vt 0.995870 0.507282
vt 0.839611 0.992718
vt 0.484286 0.507282
vt 0.609087 0.492718
vt 0.408829 0.492718
vt 0.569651 0.492718
vt 0.605684 0.507282
vt 0.805206 0.507282
vt 0.999586 0.007282
vt 0.967439 0.507282
vt 0.838638 0.507282
vt 0.223640 0.490346
vt 0.184603 0.490346
vt 0.146316 0.481063
vt 0.110250 0.462855
vt 0.077792 0.436420
vt 0.050188 0.402775
vt 0.028500 0.363213
vt 0.013561 0.319254
vt 0.005945 0.225006
vt 0.013561 0.178339
vt 0.028500 0.134380
vt 0.050188 0.094817
vt 0.077791 0.061172
vt 0.110250 0.034738
vt 0.146316 0.016529
vt 0.223640 0.007246
vt 0.261927 0.016529
vt 0.297993 0.034738
vt 0.330452 0.061172
vt 0.358055 0.094817
vt 0.379743 0.134380
vt 0.394682 0.178339
vt 0.402298 0.272587
vt 0.394682 0.319254
vt 0.379743 0.363213
vt 0.358055 0.402775
vt 0.330452 0.436420
vt 0.297993 0.462855
vt 0.261927 0.481063
vt 0.642832 0.507282
vt 0.528294 0.507281
vt 0.013561 0.816846
vt 0.005945 0.770179
vt 0.005945 0.722598
vt 0.013561 0.675931
vt 0.028500 0.631972
vt 0.050188 0.592410
vt 0.077792 0.558765
vt 0.110250 0.532330
vt 0.184603 0.504839
vt 0.223640 0.504839
vt 0.261927 0.514121
vt 0.297993 0.532330
vt 0.330452 0.558765
vt 0.358055 0.592409
vt 0.379743 0.631972
vt 0.402298 0.722598
vt 0.402298 0.770179
vt 0.394682 0.816846
vt 0.379743 0.860805
vt 0.358055 0.900367
vt 0.330452 0.934012
vt 0.297993 0.960447
vt 0.223640 0.987938
vt 0.184603 0.987938
vt 0.146316 0.978656
vt 0.110250 0.960447
vt 0.077791 0.934012
vt 0.050188 0.900367
vt 0.028500 0.860805
vn 0.0980 0.0000 -0.9952
vn 0.2903 0.0000 -0.9569
vn 0.4714 0.0000 -0.8819
vn 0.6344 0.0000 -0.7730
vn 0.7730 0.0000 -0.6344
vn 0.8819 0.0000 -0.4714
vn 0.9569 0.0000 -0.2903
vn 0.9952 0.0000 -0.0980
vn 0.9952 0.0000 0.0980
vn 0.9569 0.0000 0.2903
vn 0.8819 0.0000 0.4714
vn 0.7730 0.0000 0.6344
vn 0.6344 0.0000 0.7730
vn 0.4714 0.0000 0.8819
vn 0.2903 0.0000 0.9569
vn 0.0980 0.0000 0.9952
vn -0.0980 0.0000 0.9952
vn -0.2903 0.0000 0.9569
vn -0.4714 0.0000 0.8819
vn -0.6344 0.0000 0.7730
vn -0.7730 0.0000 0.6344
vn -0.8819 0.0000 0.4714
vn -0.9569 0.0000 0.2903
vn -0.9952 0.0000 0.0980
vn -0.9952 0.0000 -0.0980
vn -0.9569 0.0000 -0.2903
vn -0.8819 0.0000 -0.4714
vn -0.7730 0.0000 -0.6344
vn -0.6344 0.0000 -0.7730
vn -0.4714 0.0000 -0.8819
vn 0.0000 1.0000 0.0000
vn -0.2903 0.0000 -0.9569
vn -0.0980 0.0000 -0.9952
vn 0.0000 -1.0000 0.0000
s off
f 71/1/1 67/2/1 66/3/1
f 70/4/2 73/5/2 68/6/2
f 76/7/3 77/8/3 74/9/3
f 80/10/4 81/11/4 78/12/4
f 84/13/5 85/14/5 82/15/5
f 88/16/6 89/17/6 86/18/6
f 92/19/7 93/20/7 90/21/7
f 96/22/8 97/23/8 94/24/8
f 100/25/9 101/26/9 98/27/9
f 104/28/10 105/29/10 102/30/10
f 108/31/11 109/32/11 106/33/11
f 112/34/12 113/35/12 110/36/12
f 116/37/13 117/38/13 114/39/13
f 120/40/14 121/41/14 118/42/14
f 124/43/15 125/44/15 122/45/15
f 128/46/16 129/47/16 126/48/16
f 132/49/17 133/50/17 130/51/17
f 136/52/18 137/53/18 134/54/18
f 140/55/19 141/56/19 138/57/19
f 144/58/20 145/59/20 142/60/20
f 148/61/21 149/62/21 146/63/21
f 152/64/22 153/65/22 150/66/22
f 156/67/23 157/68/23 154/69/23
f 160/70/24 161/71/24 158/72/24
f 164/73/25 165/74/25 162/75/25
f 168/76/26 169/77/26 166/78/26
f 172/79/27 173/80/27 170/81/27
f 176/82/28 177/83/28 174/84/28
f 180/85/29 181/86/29 178/87/29
f 184/88/30 185/89/30 182/90/30
f 54/91/31 38/92/31 22/93/31
f 62/94/32 189/95/32 186/96/32
f 64/97/33 65/98/33 190/99/33
f 15/100/34 31/101/34 47/102/34
f 71/1/1 69/103/1 67/2/1
f 70/4/2 75/104/2 73/5/2
f 76/7/3 79/105/3 77/8/3
f 80/10/4 83/106/4 81/11/4
f 84/13/5 87/107/5 85/14/5
f 88/16/6 91/108/6 89/17/6
f 92/19/7 95/109/7 93/20/7
f 96/22/8 99/110/8 97/23/8
f 100/25/9 103/111/9 101/26/9
f 104/28/10 107/112/10 105/29/10
f 108/31/11 111/113/11 109/32/11
f 112/34/12 115/114/12 113/35/12
f 116/37/13 119/115/13 117/38/13
f 120/40/14 123/116/14 121/41/14
f 124/43/15 127/117/15 125/44/15
f 128/46/16 131/118/16 129/47/16
f 132/49/17 135/119/17 133/50/17
f 136/52/18 139/120/18 137/53/18
f 140/55/19 143/121/19 141/56/19
f 144/58/20 147/122/20 145/59/20
f 148/61/21 151/123/21 149/62/21
f 152/64/22 155/124/22 153/65/22
f 156/67/23 159/125/23 157/68/23
f 160/70/24 163/126/24 161/71/24
f 164/73/25 167/127/25 165/74/25
f 168/76/26 171/128/26 169/77/26
f 172/79/27 175/129/27 173/80/27
f 176/82/28 179/130/28 177/83/28
f 180/85/29 183/131/29 181/86/29
f 184/88/30 187/132/30 185/89/30
f 6/133/31 4/134/31 72/135/31
f 72/135/31 191/136/31 6/133/31
f 191/136/31 188/137/31 6/133/31
f 188/137/31 60/138/31 58/139/31
f 58/139/31 56/140/31 54/91/31
f 54/91/31 52/141/31 50/142/31
f 50/142/31 48/143/31 54/91/31
f 48/143/31 46/144/31 54/91/31
f 46/144/31 44/145/31 38/92/31
f 44/145/31 42/146/31 38/92/31
f 42/146/31 40/147/31 38/92/31
f 38/92/31 36/148/31 34/149/31
f 34/149/31 32/150/31 30/151/31
f 30/151/31 28/152/31 26/153/31
f 26/153/31 24/154/31 22/93/31
f 22/93/31 20/155/31 18/156/31
f 18/156/31 16/157/31 22/93/31
f 16/157/31 14/158/31 22/93/31
f 14/158/31 12/159/31 10/160/31
f 10/160/31 8/161/31 6/133/31
f 188/137/31 58/139/31 6/133/31
f 58/139/31 54/91/31 6/133/31
f 38/92/31 34/149/31 22/93/31
f 34/149/31 30/151/31 22/93/31
f 30/151/31 26/153/31 22/93/31
f 14/158/31 10/160/31 22/93/31
f 10/160/31 6/133/31 22/93/31
f 54/91/31 46/144/31 38/92/31
f 6/133/31 54/91/31 22/93/31
f 62/94/32 192/162/32 189/95/32
f 64/97/33 2/163/33 65/98/33
f 63/164/34 1/165/34 3/166/34
f 3/166/34 5/167/34 7/168/34
f 7/168/34 9/169/34 11/170/34
f 11/170/34 13/171/34 7/168/34
f 13/171/34 15/100/34 7/168/34
f 15/100/34 17/172/34 19/173/34
f 19/173/34 21/174/34 15/100/34
f 21/174/34 23/175/34 15/100/34
f 23/175/34 25/176/34 31/101/34
f 25/176/34 27/177/34 31/101/34
f 27/177/34 29/178/34 31/101/34
f 31/101/34 33/179/34 35/180/34
f 35/180/34 37/181/34 39/182/34
f 39/182/34 41/183/34 43/184/34
f 43/184/34 45/185/34 47/102/34
f 47/102/34 49/186/34 51/187/34
f 51/187/34 53/188/34 55/189/34
f 55/189/34 57/190/34 63/164/34
f 57/190/34 59/191/34 63/164/34
f 59/191/34 61/192/34 63/164/34
f 63/164/34 3/166/34 7/168/34
f 31/101/34 35/180/34 47/102/34
f 35/180/34 39/182/34 47/102/34
f 39/182/34 43/184/34 47/102/34
f 47/102/34 51/187/34 63/164/34
f 51/187/34 55/189/34 63/164/34
f 63/164/34 7/168/34 15/100/34
f 15/100/34 23/175/34 31/101/34
f 63/164/34 15/100/34 47/102/34
